<?xml version="1.0" encoding="utf-8"?>
<!-- Generator: Adobe Illustrator 22.0.0, SVG Export Plug-In . SVG Version: 6.00 Build 0)  -->
<svg version="1.1" id="Слой_1" xmlns="http://www.w3.org/2000/svg" xmlns:xlink="http://www.w3.org/1999/xlink" x="0px" y="0px"
	 viewBox="0 0 190 50" style="enable-background:new 0 0 190 50;" xml:space="preserve">
<style type="text/css">
	.st0{fill:#FFFFFF;}
</style>
<g>
	<path class="st0" d="M65.7,4.2v31.3h-7.3V5.7L65.7,4.2z M44.8,28.1c2,0,3.7-1.6,3.7-3.7c0-2-1.6-3.7-3.7-3.7c-2,0-3.7,1.6-3.7,3.7
		C41.1,26.5,42.8,28.1,44.8,28.1z M44.8,13.1c6.3,0,11.3,5.1,11.3,11.4c0,6.3-5.1,11.4-11.3,11.4c-6.3,0-11.3-5.1-11.3-11.4
		C33.4,18.2,38.5,13.1,44.8,13.1z M44.8,38.5c2,0,3.7,1.6,3.7,3.7c0,2-1.6,3.7-3.7,3.7c-2,0-3.7-1.6-3.7-3.7
		C41.1,40.1,42.8,38.5,44.8,38.5z M28.4,18.9c1.8,1.8,2.9,4.2,2.9,6.9c0,5.3-4.3,9.7-9.6,9.7H8.8V4.2h11.4c5.3,0,9.6,4.3,9.6,9.7
		C29.9,15.7,29.4,17.5,28.4,18.9z M21.7,28.1c1.3,0,2.3-1,2.3-2.3c0-1.3-1-2.3-2.3-2.3h-5.5v4.6H21.7z M16.2,11.5v4.6h4.1
		c1.3,0,2.3-1,2.3-2.3c0-1.3-1-2.3-2.3-2.3H16.2z M79.6,20.9h-3.7v5.8c0,1.8,0.6,3,2,3c0.9,0,1.6-0.2,1.6-0.2v5.4
		c0,0-1.5,0.9-3.6,0.9h-0.1c-0.1,0-0.2,0-0.3,0h-0.1c0,0-0.1,0-0.1,0c-4.1-0.2-6.9-2.8-6.9-7.3V9.4l7.3-1.6v5.6h3.7V20.9z"/>
	<path class="st0" d="M121.9,28.1c2,0,3.7-1.6,3.7-3.7c0-2-1.6-3.7-3.7-3.7c-2,0-3.7,1.6-3.7,3.7C118.2,26.5,119.8,28.1,121.9,28.1z
		 M121.9,13.1c6.3,0,11.4,5.1,11.4,11.4c0,6.3-5.1,11.4-11.4,11.4c-6.3,0-11.4-5.1-11.4-11.4C110.5,18.2,115.6,13.1,121.9,13.1z
		 M145.9,28.1c2,0,3.7-1.6,3.7-3.7c0-2-1.6-3.7-3.7-3.7c-2,0-3.7,1.6-3.7,3.7C142.2,26.5,143.9,28.1,145.9,28.1z M145.9,13.1
		c6.3,0,11.4,5.1,11.4,11.4c0,6.3-5.1,11.4-11.4,11.4c-6.3,0-11.4-5.1-11.4-11.4C134.5,18.2,139.6,13.1,145.9,13.1z M98.4,23.5v12
		h-7.4V4.2h19.7v7.4H98.4v4.6h10.1v7.4H98.4z M173.8,33.6c-1.2,1.2-2.9,1.9-4.8,1.9c-5.8,0-10.4-5-10.4-11.2
		c0-6.2,4.7-11.2,10.4-11.2c2,0,3.6,0.7,4.8,1.9V4.2h7.4v31.3h-7.4V33.6z M169.8,28c2.1,0,3.7-1.7,3.7-3.7s-1.7-3.7-3.7-3.7
		s-3.7,1.7-3.7,3.7S167.8,28,169.8,28z"/>
</g>
</svg>
