<svg id="Слой_1" data-name="Слой 1" xmlns="http://www.w3.org/2000/svg" viewBox="0 0 1061.75 347.92"><defs><style>.cls-1{fill:#599e81;}.cls-2{fill:#58977e;}</style></defs><title>glovo_logo</title><path class="cls-1" d="M468.19,226.36v-.69c0-66.18,50.65-122.24,121.91-122.24,35.46,0,59.09,8.44,80.7,24a21,21,0,0,1,8.45,16.87,20.67,20.67,0,0,1-20.61,20.6c-5.4,0-9.45-2.35-12.82-4.73-15.2-11.13-31.74-18.57-57.4-18.57-43.57,0-76.66,38.17-76.66,83.41v.67c0,48.63,32.07,84.42,80.36,84.42,22.3,0,42.55-7.09,57.07-17.89V248h-46.6c-10.13,0-18.57-7.78-18.57-17.9a18.44,18.44,0,0,1,18.57-18.24h65.86a20.61,20.61,0,0,1,20.92,20.95v63.14c0,11.82-4.72,20.26-14.51,26.34a150.57,150.57,0,0,1-84.08,25.66c-74,0-122.59-52.68-122.59-121.56" transform="translate(-468.19)"/><path class="cls-1" d="M726.61,115.93a20.11,20.11,0,0,1,20.27-20.26,20.4,20.4,0,0,1,20.6,20.26V325.3c0,11.48-9.13,20.25-20.6,20.25a20.1,20.1,0,0,1-20.27-20.25Z" transform="translate(-468.19)"/><path class="cls-1" d="M799.13,255.73v-.67c0-51,40.51-93.22,95.23-93.22s94.88,41.54,94.88,92.54v.68c0,50.65-40.52,92.86-95.55,92.86-54.39,0-94.56-41.53-94.56-92.19m149.25,0v-.67c0-31.41-22.62-57.41-54.69-57.41-32.78,0-53.7,25.66-53.7,56.73v.68c0,31.07,22.62,57.06,54.37,57.06,33.08,0,54-25.66,54-56.39" transform="translate(-468.19)"/><path class="cls-1" d="M1091.26,347.25h-2c-11.15,0-18.58-7.1-23.3-17.91l-59.42-136.09c-1-3-2.38-6.4-2.38-10.12,0-10.13,9.12-19.59,20.25-19.59s16.89,6.41,20.28,14.87l45.92,118.17,46.6-118.85c3-7.09,8.45-14.19,19.25-14.19,11.15,0,19.92,8.45,19.92,19.59a24.62,24.62,0,0,1-2.35,9.79l-59.45,136.42c-4.72,10.47-12.15,17.91-23.3,17.91" transform="translate(-468.19)"/><path class="cls-1" d="M1191.27,255.73v-.67c0-51,40.51-93.22,95.22-93.22s94.89,41.54,94.89,92.54v.68c0,50.65-40.52,92.86-95.57,92.86-54.36,0-94.54-41.53-94.54-92.19m149.25,0v-.67c0-31.41-22.62-57.41-54.71-57.41-32.76,0-53.69,25.66-53.69,56.73v.68c0,31.07,22.63,57.06,54.37,57.06,33.08,0,54-25.66,54-56.39" transform="translate(-468.19)"/><path class="cls-2" d="M1449.71,0a80.16,80.16,0,0,0-65.11,127l2.13,3,41.79,59a19.49,19.49,0,0,0,16.21,8.32h10a19.47,19.47,0,0,0,16.21-8.32l41.79-59,2.11-3a79.51,79.51,0,0,0,15.14-46.77A80.33,80.33,0,0,0,1449.71,0m33,103.92-2.23,3.12-30.8,43.45L1419,107.12l-2.25-3.15A40.34,40.34,0,0,1,1409,80.24a40.72,40.72,0,0,1,81.44,0,40.34,40.34,0,0,1-7.69,23.68" transform="translate(-468.19)"/><path class="cls-2" d="M1427.14,233.44v-.15c0-12,9.52-21.92,22.38-21.92s22.31,9.77,22.31,21.76v.16c0,11.91-9.52,21.81-22.46,21.81-12.77,0-22.23-9.75-22.23-21.66" transform="translate(-468.19)"/></svg>