<svg id="Слой_1" data-name="Слой 1" xmlns="http://www.w3.org/2000/svg" viewBox="0 0 222.89 115.21"><defs><style>.cls-1{fill:#e32a26;}.cls-2{fill:#fff;}.cls-3{fill:#ffc527;}</style></defs><title>RMHC-Ukraine_horiz_whitetxt-RGB</title><path class="cls-1" d="M173,91.38l.2,3.56c-1,0-.29,1.39-1.18,1.43-1.58,4.9-6.58,4.21-8.51,8.76-1,1.43-2,2.86-1.93,4.74l-.94.74c.1.3.5.25.7.25v.94h-1.63c-1.19-3.61,2.22-7.12.69-10.92-2.52-3.26-8.06-5.94-5.44-10.69.6.21,1-.54,1.19-.93s-.15-.35-.25-.5c1.29-1.87,3.9-1.28,5.68-1.43.65.1,1.14.74,1.69,1.18,1.33-.78,1.83-2.17,3.8-1.62l.45-.5c2.27,1.09,5.58,1.68,5.48,5" transform="translate(-104.56 -86.39)"/><path class="cls-2" d="M170.84,90.69a8.81,8.81,0,0,1-.44,4.75c-.35.49-1.69.74-1.69,1.63h-.44l-5.49,5c-.35-3.62-3.71-4.41-5.19-7.37-1.33-.25-1-1.83-.75-2.62a8,8,0,0,1,2.63-2.82c1.44-.54,2.77.64,3.06,2.12,1.39.25,1.09,2.68,2.62,1.88.8-.69.55-1.28.25-2.12-.34-.45-1-.89-.49-1.64,1.67-1,5.29-1.38,5.93,1.19" transform="translate(-104.56 -86.39)"/><path d="M139.41,105.6c1,2.85,4,4.57,6.24,6.45,3,2,5.49,4.28,8.32,6.25,2.07-2.21.62-6.3,2.5-8.8,1.34-1,2.31,1.11,3.7,1.88,1.35-.25,3.22.57,3.94-.73.44.2,1.21.73,1.16,1.16-3.51,2.55-2.6,7.59-4.38,10.86.29,1.16-.53,1.84-.24,3,3.22,4,7.84,6.63,11.78,10,.67-.3,1.2.42,1.35.91-.34-.06-.49.38-.92.24-1.49,4.85-.81,9.47-2.07,13.84,1.06.62,0,1.53,0,2.31.87,5.14-1.78,10.32.49,15.42.29,1-.53,1.68-.25,2.31-.47,2.7.91,6.93,0,9.71a4.41,4.41,0,0,1-.24,2.79c.24,4.32-.19,7.83-.23,11.73.19.67,1.05,1.35,1.63.72.14.57-.91,1.54-.72,2.3a59.84,59.84,0,0,1-10.82-.71c-9.47,1-20,2.25-28.84-.2-7.83.63-15,.87-22.64-.24-.43.87-1.53.28-2.3.44-.72-1.16-1.54.71-2.31-.68,1.54-2.93-.67-5.81.72-9,.29-6.88.29-14.42.91-21.49h.24c.1-4.76,1.59-8.41,1.16-13.12a47.81,47.81,0,0,0-.49-12.26c-.43-.67-1.77-.19-1.58-1.34-.38-1.4,2.3-1.83,1.83-3.7.38-.44,1.1-.2,1.63-.24,1.06-2,2.93-3.42,4.37-5.1,2.75-1.73,3.76-4.81,6.68-6.2,4.86-5,11-8.66,14.76-14.33a6.08,6.08,0,0,0,2.31-3.7c-1.49-.15-.87-1.3-.67-2.31H138a.5.5,0,0,0,.24.48c1.21.05,1.3-1.77,2.79-1.39Z" transform="translate(-104.56 -86.39)"/><path class="cls-2" d="M140.32,110c2,1.06,3.26,3.23,5.58,3.94,0,.92,1.2,1.44,1.58,1.83,1.2,1.49,3,2.5,3.94,3.7a19.82,19.82,0,0,1,6.68,7.84c4.33,2.88,7.31,6.54,11.54,9.23a28.35,28.35,0,0,0,0,7.59c-.53.43.05,1.87-.48,2.55a3.61,3.61,0,0,0-.44,3.22h-.48a28.14,28.14,0,0,1-.91,9.71c.63,2.21-.38,4.71.91,6.92.15,9.23-.09,18.64-.67,28.16-.33.59-1.39-.24-1.39.67h-.48c-.67-1.39-1.92-.18-3.22-.67-4.38.34-8.7,1.49-13.6,1.35a72.55,72.55,0,0,1-12.7-.68v-.23c-3.12-.92-6.68-.24-9.9,0-3.84,1.1-8.22-.15-12.5.23v-.23a4.61,4.61,0,0,0-3,0v.23c-.18-.67-1.19-.38-1.82-.47.15.47-1.3-.05-1.88-.2.2-14.32,1.35-30.76,2.55-45.46a24.22,24.22,0,0,1,0-12c2.21-1.49,3-4.14,5.53-5.53,6.3-8.74,16.34-13,21.68-22.59,1.1-2.31,2.69.29,3.46.91" transform="translate(-104.56 -86.39)"/><path class="cls-2" d="M162.24,113c-.43,1.44-.2,3.94-1.59,5.1l-1.15,5.1c-.77.19-.58-.3-.91-.73-1-1.54-2.79-1.54-3.46-3.22.71-2.4,1-5,1.82-7.41,2.07-.33,3.12,2.46,5.29,1.16" transform="translate(-104.56 -86.39)"/><path d="M148.29,132c3.44,4.53,7.87,7.68,13.53,8.29a17.28,17.28,0,0,0,2.43-.22.61.61,0,0,1,.56.58l-.24.69L156.11,154c-.41.87-1.58.23-1.78,1.18L154,156a4.28,4.28,0,0,1,.33,3.44c-1.19,1.87-3,3.24-3.66,5.38.23,1.59,1.24,2.89,1.73,4.41a8,8,0,0,1,.6,3.37c.85-.34,2.06-1,2.84-.1a2.72,2.72,0,0,1,.07,2.93c-.69,1.3-2.29,2-3.53,2.73-.29,1-.32,2.24-1.36,2.82a5.32,5.32,0,0,1-2.31.65,2.53,2.53,0,0,1-1.95,2c0,.73.06,1.72-.67,2.17a2.12,2.12,0,0,1-1.93.48,2.76,2.76,0,0,1-1.74,2.37l-1,.09a3.45,3.45,0,0,1-3.26.74,3.94,3.94,0,0,1-1.77-1.08,2.84,2.84,0,0,1-2.55-1.14,6.47,6.47,0,0,1-.79-1.52,3.54,3.54,0,0,1-2.85-2.75l-.24-1.46c-2.57-2.27-2.06-6.28-1-9.13l1.23-2.77c-.91-2-2.1-3.73-3.11-5.65-.6-.09-1.39,0-1.75-.6l-2.86-5.22c-.59-.29-1.29-.4-1.65-1.05l-7-12.82a1.74,1.74,0,0,1,.16-1.32l.81-.54c2.63-.38,5.33-1,7.32-3.3.89-.81,1.89-2.34,3.28-1.61l.45.44,7.38,13.42c.11.56-.57.88-.18,1.38l2.36,4.68c.35.8-.67,1.5.14,2.13l.23-.3c.53-1.76,1.27-3.87.75-5.77.15-2.13,2.51-2.93,4.18-3.45l.76-1.38a2.24,2.24,0,0,1-.29-2c2.09-4.88,4.24-9.71,6.35-14.56a.65.65,0,0,1,.85-.08" transform="translate(-104.56 -86.39)"/><path class="cls-1" d="M162.45,141.77a3.89,3.89,0,0,1-.63,1.11c-5.71.82-10.6-2.63-14.28-6.71a5,5,0,0,1,.57-1.47c3.76,4,8.33,7.63,14.34,7.07" transform="translate(-104.56 -86.39)"/><path class="cls-2" d="M160.54,144.61a4.19,4.19,0,0,1-.63,1c-5.55.21-10-2.68-13.67-6.62a4.39,4.39,0,0,1,.55-1.18c3.67,3.88,8.1,7,13.75,6.76" transform="translate(-104.56 -86.39)"/><path class="cls-1" d="M158.85,147.13c-.23.33-.41,1.13-1,1.06-5.26,0-9.38-2.62-12.91-6a4.13,4.13,0,0,1,.57-1.44c3.66,3.46,7.86,6.57,13.36,6.42" transform="translate(-104.56 -86.39)"/><path class="cls-1" d="M131.08,151.19c0,1.66-1.81,2.41-2.94,3.37l-2.48,1.31a.83.83,0,0,0-.09.9c1,1.07,2.06-.38,3-.68a19.62,19.62,0,0,0,3.12-2.24L134,158c-.43,1.35-1.89,2.28-3,3-1.36.69-2.78,1.57-4.35,1.25-1.17-1.87-2.15-3.82-3.29-5.69a1.49,1.49,0,0,1-1.44-.87l-6.27-11.35c-.09-.4.4-.41.61-.56,3-.3,5.9-2.36,8.09-4.51l.39.11Z" transform="translate(-104.56 -86.39)"/><path class="cls-2" d="M157.18,149.53a3.83,3.83,0,0,1-.7,1.16c-5.12.11-9.25-2.39-12.75-5.67a3.07,3.07,0,0,1,.54-1.48c3.6,3.29,7.65,6,12.91,6" transform="translate(-104.56 -86.39)"/><path class="cls-1" d="M155.44,152c0,.39-.36.61-.59.91-4.81,0-8.74-2.22-12.16-5.06-.22-.41.06-.91.26-1.24,3.5,2.89,7.49,5.3,12.49,5.39" transform="translate(-104.56 -86.39)"/><path class="cls-1" d="M152.84,154.49a3.38,3.38,0,0,1-1.79,2.32,6.89,6.89,0,0,1-6.22-.24c-1.43-.93-2.9-1.85-3-3.71a4.73,4.73,0,0,1,.86-2.78,22.91,22.91,0,0,0,10.15,4.41" transform="translate(-104.56 -86.39)"/><path class="cls-3" d="M140.07,152.48a5,5,0,0,0,2.48,4.8c2.39,1.77,6.34,2.6,9,1.14l1-.6a1,1,0,0,1,.15,1c-1.06,1.88-2.71,3.4-3.56,5.39-.37,3,2.44,5.19,2.06,8.28a44.53,44.53,0,0,1-.76,6.19,8.44,8.44,0,0,0-4.17-6.31,2.37,2.37,0,0,0-1.59.24,3.07,3.07,0,0,0-.87,1.22,2.25,2.25,0,0,0-1.73.11,2.69,2.69,0,0,0-1.39,2.52,2.48,2.48,0,0,0-1.63,1.95c.07.59-.1,1.29.2,1.81-1.59,2-1,4.91,0,7l.57.72a1.51,1.51,0,0,1-1.43,0c-1.92-.92-1.82-3.28-1.69-5.21,0-1.18.8-2.72,0-3.65a.7.7,0,0,0-.92.43c-.59,2.28-1.09,5-.44,7.24-1.41-.9-1.55-2.7-1.43-4.25a31.39,31.39,0,0,1,1-5.64.93.93,0,0,0-.37-.79c-.4-.23-.8.12-1,.42A21.41,21.41,0,0,0,132.6,184c-.76-.18-1-1.15-1.24-1.82-.32-2.27.46-4.57.93-6.73,0-.36,0-.88-.48-1-1.21.07-1.14,1.57-1.52,2.48l-.33,2.27c-1-1.4-.51-3.56-.15-5.24,1.6-4.26,4.12-8,6.22-12,.95-2.28,2.34-4.51,2.16-7.23a2.75,2.75,0,0,1,.27-2.08A3.32,3.32,0,0,1,140,152Z" transform="translate(-104.56 -86.39)"/><path class="cls-2" d="M134.63,161.36c-1,2.26-2.26,4.42-3.52,6.57H131l-2.27-4.19a21.34,21.34,0,0,0,5.39-3.21c.24.16.34.56.5.84" transform="translate(-104.56 -86.39)"/><path d="M138.92,165.63c-.06.77-.35,1.49-.36,2.17.76-1.1,1.56-2.54,2.85-3.1a.9.9,0,0,1,.72.67,19.05,19.05,0,0,1-1.45,8.53,3.09,3.09,0,0,1-1-.62,43,43,0,0,0,1.76-6.09c0-.52.38-1.27-.07-1.64-.93.53-1.32,1.52-1.93,2.34-.63,1.17-1.21,2.42-1.75,3.6-.32-.39-1.67-.63-1-1.4a18,18,0,0,0,1.73-5.94.3.3,0,0,0-.42,0,20.41,20.41,0,0,0-3.6,5.39l-.88-.64c1.28-2,2.37-4.44,4.71-5.67a.76.76,0,0,1,.56.22c.39.62.11,1.5.11,2.19" transform="translate(-104.56 -86.39)"/><path class="cls-2" d="M155,173.94c.07,1.18-1.16,1.77-2,2.2-.1,0-.34.1-.29-.08l.17-1.65a5.27,5.27,0,0,1,1.87-.82Z" transform="translate(-104.56 -86.39)"/><path class="cls-2" d="M148.56,177c.31.85,1.06,2,.2,2.82-.16,0-.25.18-.4.09a14.23,14.23,0,0,0-3.27-5.27c.09-.31.08-.74.48-.92,1.68.17,2.23,2.07,3,3.28" transform="translate(-104.56 -86.39)"/><path class="cls-2" d="M145.75,177.79c.4,1.44,2.44,3.17.68,4.48a19.32,19.32,0,0,0-4.15-5.52,1.3,1.3,0,0,1,.08-1.12,1.21,1.21,0,0,1,.73-.46c1.31.23,2,1.61,2.66,2.62" transform="translate(-104.56 -86.39)"/><path class="cls-2" d="M143.92,180.46a9.53,9.53,0,0,1,1.46,3.53,1.12,1.12,0,0,1-.68.91l-.76-.15c-.61-1.67-.94-4.19-3.11-4.7a2.11,2.11,0,0,1-.19-1.9.84.84,0,0,1,1.11-.05,5.9,5.9,0,0,1,2.17,2.36" transform="translate(-104.56 -86.39)"/><path class="cls-2" d="M141.67,182.44a9.65,9.65,0,0,1,.81,3.76c-.09.34-.33.81-.79.84-1.28-.17-1.32-1.7-1.74-2.63a3.72,3.72,0,0,1,.26-2.66c.57-.5,1.26.15,1.46.69" transform="translate(-104.56 -86.39)"/><path d="M176.31,193.27a2.45,2.45,0,1,1-2.44,2.44,2.41,2.41,0,0,1,2.44-2.44Zm0,.37a2.08,2.08,0,1,0,2,2.08,2,2,0,0,0-2-2.08Zm-.46,3.5h-.43V194.4a5.36,5.36,0,0,1,.77-.06,1.55,1.55,0,0,1,.85.2.72.72,0,0,1-.28,1.24v0c.24,0,.4.26.46.66a2.28,2.28,0,0,0,.17.68h-.45a2,2,0,0,1-.2-.7.5.5,0,0,0-.58-.47h-.31Zm0-1.52h.32c.36,0,.66-.12.66-.46s-.17-.49-.66-.49a2.17,2.17,0,0,0-.32,0Z" transform="translate(-104.56 -86.39)"/><path class="cls-2" d="M192,134.16a7.19,7.19,0,0,1-4.68-2,6.19,6.19,0,0,1-1.62-4.48,7.48,7.48,0,0,1,.41-2.52,5.67,5.67,0,0,1,1.21-2,6.14,6.14,0,0,1,2-1.37,8.76,8.76,0,0,1,2.71-.67v-1.91h2.31v1.91a8.24,8.24,0,0,1,2.64.67,6,6,0,0,1,1.92,1.37,5.6,5.6,0,0,1,1.18,2,7.74,7.74,0,0,1,.4,2.52,6.3,6.3,0,0,1-1.58,4.48,6.85,6.85,0,0,1-4.56,2v2H192Zm0-10.82c-2.63.3-3.94,1.72-3.94,4.29s1.31,4,3.94,4.36Zm2.31,8.65c2.52-.33,3.78-1.79,3.78-4.36s-1.26-4-3.78-4.29Z" transform="translate(-104.56 -86.39)"/><path class="cls-2" d="M202.69,137.54a2.39,2.39,0,0,0,.69.38,2.29,2.29,0,0,0,.68.1,1.2,1.2,0,0,0,1-.6,6.7,6.7,0,0,0,.83-2.13l-4.51-11h2.37l3.4,8.94,3-8.94h2.18l-4.56,12.45a6,6,0,0,1-1.5,2.54,2.94,2.94,0,0,1-2,.72,3.38,3.38,0,0,1-.89-.11,1.69,1.69,0,0,1-.69-.38Z" transform="translate(-104.56 -86.39)"/><polygon class="cls-2" points="111.78 42.28 116.78 42.28 116.78 37.91 119.05 37.91 119.05 48.9 116.78 48.9 116.78 44.24 111.78 44.24 111.78 48.9 109.51 48.9 109.51 37.91 111.78 37.91 111.78 42.28"/><path class="cls-2" d="M225.39,133.3H226a1.64,1.64,0,0,0,.84-.39,2.35,2.35,0,0,0,.58-1,9.68,9.68,0,0,0,.42-1.71c.12-.71.23-1.61.35-2.7l.35-3.23h7.25v9h1.38v5.29h-2v-3.3h-7.81v3.3h-2Zm8.13,0v-7.1h-2.9l-.27,2a26,26,0,0,1-.6,3.21,5.6,5.6,0,0,1-.83,1.88Z" transform="translate(-104.56 -86.39)"/><path class="cls-2" d="M242.15,135.5a4.22,4.22,0,0,1-1.48-.26,3.73,3.73,0,0,1-1.18-.73,3.42,3.42,0,0,1-.77-1.09,3.25,3.25,0,0,1-.29-1.36,3,3,0,0,1,.34-1.41,3.2,3.2,0,0,1,1-1.09,4.58,4.58,0,0,1,1.47-.72,6.82,6.82,0,0,1,1.87-.25,8.82,8.82,0,0,1,1.54.14,7.07,7.07,0,0,1,1.36.37v-.76a2.55,2.55,0,0,0-.69-1.9,2.7,2.7,0,0,0-2-.68,4.78,4.78,0,0,0-1.74.32,8.87,8.87,0,0,0-1.75.94l-.71-1.47a7.71,7.71,0,0,1,4.41-1.43,5,5,0,0,1,3.52,1.15,4.28,4.28,0,0,1,1.26,3.32v4c0,.49.21.74.61.76v2a5.28,5.28,0,0,1-.58.08,3.71,3.71,0,0,1-.47,0,1.51,1.51,0,0,1-1-.34,1.47,1.47,0,0,1-.45-.86l-.06-.69a5,5,0,0,1-1.82,1.48,5.35,5.35,0,0,1-2.32.51m.63-1.7a4.06,4.06,0,0,0,1.59-.31,2.68,2.68,0,0,0,1.16-.85,1,1,0,0,0,.44-.79V130.4a6.23,6.23,0,0,0-1.25-.36,7.23,7.23,0,0,0-1.29-.13,3.49,3.49,0,0,0-2,.54,1.64,1.64,0,0,0-.79,1.42,1.77,1.77,0,0,0,.61,1.37,2.2,2.2,0,0,0,1.55.56" transform="translate(-104.56 -86.39)"/><polygon class="cls-2" points="146.57 37.91 148.84 37.91 148.84 46.9 153.06 46.9 153.06 37.91 155.35 37.91 155.35 46.9 157.26 46.9 157.26 52.2 155.23 52.2 155.23 48.9 146.57 48.9 146.57 37.91"/><path class="cls-2" d="M263.57,120h2.31v2.54h-2.31Zm0,4.35h2.31v11h-2.31Z" transform="translate(-104.56 -86.39)"/><path class="cls-2" d="M270.52,131.07a3.42,3.42,0,0,1-1.53-1.13,3.31,3.31,0,0,1-.59-2,3.49,3.49,0,0,1,1.09-2.62,3.76,3.76,0,0,1,1.21-.73,4.45,4.45,0,0,1,1.52-.26h4.54v11h-2.29v-3.84h-1.79l-2.35,3.84h-2.54Zm4-1.49V126.2h-2a1.83,1.83,0,0,0-1.17.44,1.53,1.53,0,0,0-.55,1.28,1.55,1.55,0,0,0,.49,1.23,1.71,1.71,0,0,0,1.17.43Z" transform="translate(-104.56 -86.39)"/><path class="cls-2" d="M185.49,155.21h.34a2.28,2.28,0,0,0,1.14-.38,2.77,2.77,0,0,0,.93-1.27,12.1,12.1,0,0,0,.71-2.61c.2-1.12.38-2.6.54-4.43l.33-4.14h8.44v12.83h2.27v5.9H198v-3.82H187.66v3.82h-2.17Zm10.08,0V144.46h-3.9l-.21,2.39c-.1,1.12-.21,2.13-.34,3a21.31,21.31,0,0,1-.46,2.35,11.38,11.38,0,0,1-.61,1.75,5.24,5.24,0,0,1-.76,1.24Z" transform="translate(-104.56 -86.39)"/><path class="cls-2" d="M201.89,142h2.31v2.54h-2.31Zm0,4.35h2.31v11h-2.31Z" transform="translate(-104.56 -86.39)"/><polygon class="cls-2" points="108.33 66.34 111.84 59.91 114.17 59.91 114.17 70.9 111.94 70.9 111.94 63.7 108.94 69.18 107.75 69.18 104.72 63.7 104.72 70.9 102.5 70.9 102.5 59.91 104.85 59.91 108.33 66.34"/><path class="cls-2" d="M227.07,157.29V142.38h6.26a4.16,4.16,0,0,1,1.86.42,4.84,4.84,0,0,1,1.46,1.1,5.4,5.4,0,0,1,.95,1.56,4.77,4.77,0,0,1,.35,1.77,5.1,5.1,0,0,1-.33,1.82,4.91,4.91,0,0,1-.91,1.55,4.25,4.25,0,0,1-1.42,1.09,4,4,0,0,1-1.83.41h-4v5.19Zm2.35-7.26h3.89a1.94,1.94,0,0,0,.91-.21,2.24,2.24,0,0,0,.71-.59,3.12,3.12,0,0,0,.46-.89,3.5,3.5,0,0,0,.17-1.11,3.3,3.3,0,0,0-.19-1.13,2.54,2.54,0,0,0-.53-.87,2.3,2.3,0,0,0-.76-.57,2.18,2.18,0,0,0-.9-.2h-3.76Z" transform="translate(-104.56 -86.39)"/><path class="cls-2" d="M244.61,157.5a5.65,5.65,0,0,1-2.34-.46,5.42,5.42,0,0,1-1.78-1.24,5.32,5.32,0,0,1-1.13-1.82,6.09,6.09,0,0,1,0-4.34,5.35,5.35,0,0,1,1.14-1.82,5.73,5.73,0,0,1,8.21,0,5.37,5.37,0,0,1,1.15,1.82,6.09,6.09,0,0,1,0,4.34,5.37,5.37,0,0,1-1.15,1.82,5.53,5.53,0,0,1-1.78,1.24,5.62,5.62,0,0,1-2.32.46m-3.28-5.67a4.36,4.36,0,0,0,.25,1.47,3.61,3.61,0,0,0,.7,1.17,3,3,0,0,0,1,.77,3,3,0,0,0,2.58,0,3.16,3.16,0,0,0,1-.78,3.94,3.94,0,0,0,.69-1.18,4.42,4.42,0,0,0,0-2.93,4,4,0,0,0-.69-1.19,3.31,3.31,0,0,0-1-.78,3,3,0,0,0-1.29-.29,2.79,2.79,0,0,0-1.27.3,3.12,3.12,0,0,0-1,.8,3.87,3.87,0,0,0-.71,1.18,4.15,4.15,0,0,0-.26,1.46" transform="translate(-104.56 -86.39)"/><polygon class="cls-2" points="150.06 64.28 155.06 64.28 155.06 59.91 157.33 59.91 157.33 70.9 155.06 70.9 155.06 66.24 150.06 66.24 150.06 70.9 147.79 70.9 147.79 59.91 150.06 59.91 150.06 64.28"/><path class="cls-2" d="M267.62,157.5a4.22,4.22,0,0,1-1.48-.26,3.68,3.68,0,0,1-1.17-.73,3.29,3.29,0,0,1-.78-1.09,3.25,3.25,0,0,1-.28-1.36,3,3,0,0,1,.33-1.41,3.31,3.31,0,0,1,1-1.09,4.58,4.58,0,0,1,1.47-.72,6.84,6.84,0,0,1,1.88-.25,8.71,8.71,0,0,1,1.53.14,7.07,7.07,0,0,1,1.36.37v-.76a2.55,2.55,0,0,0-.69-1.9,2.7,2.7,0,0,0-2-.68,4.78,4.78,0,0,0-1.74.32,8.87,8.87,0,0,0-1.75.94l-.71-1.47a7.71,7.71,0,0,1,4.41-1.43,5,5,0,0,1,3.52,1.15,4.28,4.28,0,0,1,1.26,3.32v4c0,.49.21.74.61.76v2a5.14,5.14,0,0,1-.57.08l-.48,0a1.53,1.53,0,0,1-1-.34,1.47,1.47,0,0,1-.45-.86l-.06-.69a5,5,0,0,1-1.82,1.48,5.35,5.35,0,0,1-2.32.51m.63-1.7a4.06,4.06,0,0,0,1.59-.31,2.63,2.63,0,0,0,1.16-.85,1,1,0,0,0,.44-.79V152.4a6.14,6.14,0,0,0-1.24-.36,7.44,7.44,0,0,0-1.3-.13,3.49,3.49,0,0,0-2,.54,1.64,1.64,0,0,0-.79,1.42,1.77,1.77,0,0,0,.61,1.37,2.22,2.22,0,0,0,1.55.56" transform="translate(-104.56 -86.39)"/><path class="cls-2" d="M275.31,155.36a2.45,2.45,0,0,0,1.05-.28,1.85,1.85,0,0,0,.71-.88,7.4,7.4,0,0,0,.5-1.74c.13-.74.26-1.71.39-2.92l.35-3.23h7.25v11h-2.29V148.2h-2.9l-.27,2c-.2,1.42-.41,2.58-.63,3.49a7.48,7.48,0,0,1-.85,2.17,3.05,3.05,0,0,1-1.26,1.15,5.05,5.05,0,0,1-1.82.38Z" transform="translate(-104.56 -86.39)"/><path class="cls-2" d="M288.41,146.31h2.27v3.63h2.12a5.2,5.2,0,0,1,1.53.23,3.83,3.83,0,0,1,1.28.71,3.4,3.4,0,0,1,.88,1.16,4.16,4.16,0,0,1,0,3.2,3.47,3.47,0,0,1-.87,1.15,3.62,3.62,0,0,1-1.27.68,5.11,5.11,0,0,1-1.51.22h-4.43Zm4.29,9.11A1.88,1.88,0,0,0,294,155a1.63,1.63,0,0,0,.5-1.32,1.77,1.77,0,0,0-.52-1.38,1.84,1.84,0,0,0-1.26-.47h-2v3.61Z" transform="translate(-104.56 -86.39)"/><path class="cls-2" d="M297.65,155.3h.61a1.64,1.64,0,0,0,.84-.39,2.35,2.35,0,0,0,.58-1,9.68,9.68,0,0,0,.42-1.71c.12-.71.23-1.61.35-2.7l.35-3.23h7.25v9h1.38v5.29h-2v-3.3h-7.81v3.3h-2Zm8.13,0v-7.1h-2.9l-.27,2a26,26,0,0,1-.6,3.21,5.6,5.6,0,0,1-.83,1.88Z" transform="translate(-104.56 -86.39)"/><path class="cls-2" d="M314.41,157.5a4.18,4.18,0,0,1-1.48-.26,3.73,3.73,0,0,1-1.18-.73,3.39,3.39,0,0,1-1.06-2.45,3,3,0,0,1,.34-1.41,3.27,3.27,0,0,1,1-1.09,4.8,4.8,0,0,1,1.47-.72,7,7,0,0,1,1.88-.25,8.82,8.82,0,0,1,1.54.14,7.07,7.07,0,0,1,1.36.37v-.76a2.55,2.55,0,0,0-.69-1.9,2.71,2.71,0,0,0-2-.68,4.77,4.77,0,0,0-1.73.32,8.6,8.6,0,0,0-1.75.94l-.71-1.47a7.71,7.71,0,0,1,4.41-1.43,5,5,0,0,1,3.52,1.15,4.28,4.28,0,0,1,1.26,3.32v4c0,.49.2.74.61.76v2a5.28,5.28,0,0,1-.58.08,3.71,3.71,0,0,1-.47,0,1.51,1.51,0,0,1-1-.34,1.47,1.47,0,0,1-.45-.86l-.06-.69a5,5,0,0,1-1.82,1.48,5.35,5.35,0,0,1-2.32.51m.63-1.7a4.06,4.06,0,0,0,1.59-.31,2.68,2.68,0,0,0,1.16-.85,1,1,0,0,0,.44-.79V152.4A6.23,6.23,0,0,0,317,152a7.23,7.23,0,0,0-1.29-.13,3.47,3.47,0,0,0-2,.54,1.64,1.64,0,0,0-.79,1.42,1.77,1.77,0,0,0,.61,1.37,2.2,2.2,0,0,0,1.55.56" transform="translate(-104.56 -86.39)"/><polygon class="cls-2" points="94.81 92.9 94.81 82.17 90.38 90.3 89.08 90.3 84.63 82.17 84.63 92.9 82.27 92.9 82.27 77.99 84.79 77.99 89.73 87.1 94.66 77.99 97.18 77.99 97.18 92.9 94.81 92.9"/><path class="cls-2" d="M207.69,179.5a4.18,4.18,0,0,1-1.48-.26,3.62,3.62,0,0,1-1.18-.73,3.39,3.39,0,0,1-1.06-2.45,3,3,0,0,1,.34-1.41,3.27,3.27,0,0,1,.95-1.09,4.8,4.8,0,0,1,1.47-.72,7,7,0,0,1,1.88-.25,8.82,8.82,0,0,1,1.54.14,7.07,7.07,0,0,1,1.36.37v-.76a2.55,2.55,0,0,0-.69-1.9,2.71,2.71,0,0,0-2-.68,4.77,4.77,0,0,0-1.73.32,8.6,8.6,0,0,0-1.75.94l-.72-1.47a7.76,7.76,0,0,1,4.41-1.43,5,5,0,0,1,3.53,1.15,4.28,4.28,0,0,1,1.26,3.32v4c0,.49.2.74.61.76v2a5.28,5.28,0,0,1-.58.08l-.47,0a1.51,1.51,0,0,1-1-.34,1.47,1.47,0,0,1-.45-.86l-.06-.69A5,5,0,0,1,210,179a5.35,5.35,0,0,1-2.32.51m.63-1.7a4.06,4.06,0,0,0,1.59-.31,2.68,2.68,0,0,0,1.16-.85,1,1,0,0,0,.44-.79V174.4a6.23,6.23,0,0,0-1.25-.36,7.23,7.23,0,0,0-1.29-.13,3.52,3.52,0,0,0-2,.54,1.65,1.65,0,0,0-.78,1.42,1.77,1.77,0,0,0,.61,1.37,2.2,2.2,0,0,0,1.55.56" transform="translate(-104.56 -86.39)"/><polygon class="cls-2" points="118.75 81.92 121.27 81.92 116.97 87.25 121.59 92.9 119 92.9 115.41 88.36 114.38 88.36 114.38 92.9 112.11 92.9 112.11 81.92 114.38 81.92 114.38 86.49 115.24 86.49 118.75 81.92"/><path class="cls-2" d="M226.53,177.21h.33a2.31,2.31,0,0,0,1.15-.38,2.76,2.76,0,0,0,.92-1.27,12,12,0,0,0,.72-2.61c.2-1.12.38-2.6.53-4.43l.34-4.14H239v12.83h2.27v5.9H239v-3.82H228.69v3.82h-2.16Zm10.08,0V166.46H232.7l-.21,2.39c-.1,1.12-.21,2.13-.33,3a19.09,19.09,0,0,1-.47,2.35,10.41,10.41,0,0,1-.61,1.75,5.23,5.23,0,0,1-.75,1.24Z" transform="translate(-104.56 -86.39)"/><path class="cls-2" d="M247.69,179.5a5.72,5.72,0,0,1-2.34-.46,5.42,5.42,0,0,1-2.91-3.06,6.23,6.23,0,0,1,0-4.34,5.37,5.37,0,0,1,1.15-1.82,5.73,5.73,0,0,1,8.21,0,5.2,5.2,0,0,1,1.14,1.82,6.09,6.09,0,0,1,0,4.34,5.2,5.2,0,0,1-1.14,1.82,5.53,5.53,0,0,1-4.11,1.7m-3.27-5.67a4.13,4.13,0,0,0,.25,1.47,3.77,3.77,0,0,0,.69,1.17,3.13,3.13,0,0,0,1,.77,3,3,0,0,0,2.59,0,3.16,3.16,0,0,0,1-.78,3.94,3.94,0,0,0,.69-1.18,4.42,4.42,0,0,0,0-2.93,4,4,0,0,0-.69-1.19,3.31,3.31,0,0,0-1-.78,3,3,0,0,0-1.3-.29,2.82,2.82,0,0,0-1.27.3,3.22,3.22,0,0,0-1,.8,4.05,4.05,0,0,0-.7,1.18,4.15,4.15,0,0,0-.26,1.46" transform="translate(-104.56 -86.39)"/><polygon class="cls-2" points="153.15 86.28 158.15 86.28 158.15 81.92 160.41 81.92 160.41 92.9 158.15 92.9 158.15 88.24 153.15 88.24 153.15 92.9 150.88 92.9 150.88 81.92 153.15 81.92 153.15 86.28"/><path class="cls-2" d="M270.71,179.5a4.22,4.22,0,0,1-1.48-.26,3.73,3.73,0,0,1-1.18-.73,3.42,3.42,0,0,1-.77-1.09,3.25,3.25,0,0,1-.29-1.36,3,3,0,0,1,.34-1.41,3.2,3.2,0,0,1,1-1.09,4.58,4.58,0,0,1,1.47-.72,6.82,6.82,0,0,1,1.87-.25,8.82,8.82,0,0,1,1.54.14,7.07,7.07,0,0,1,1.36.37v-.76a2.55,2.55,0,0,0-.69-1.9,2.7,2.7,0,0,0-2-.68,4.78,4.78,0,0,0-1.74.32,8.87,8.87,0,0,0-1.75.94l-.71-1.47a7.71,7.71,0,0,1,4.41-1.43,5,5,0,0,1,3.52,1.15,4.28,4.28,0,0,1,1.26,3.32v4c0,.49.21.74.61.76v2a5.28,5.28,0,0,1-.58.08,3.71,3.71,0,0,1-.47,0,1.51,1.51,0,0,1-1-.34,1.47,1.47,0,0,1-.45-.86l-.06-.69A5,5,0,0,1,273,179a5.35,5.35,0,0,1-2.32.51m.63-1.7a4.06,4.06,0,0,0,1.59-.31,2.68,2.68,0,0,0,1.16-.85,1,1,0,0,0,.44-.79V174.4a6.23,6.23,0,0,0-1.25-.36,7.23,7.23,0,0,0-1.29-.13,3.49,3.49,0,0,0-2,.54,1.64,1.64,0,0,0-.79,1.42,1.77,1.77,0,0,0,.61,1.37,2.2,2.2,0,0,0,1.55.56" transform="translate(-104.56 -86.39)"/><path class="cls-2" d="M278.4,177.36a2.45,2.45,0,0,0,1.05-.28,1.91,1.91,0,0,0,.71-.88,7,7,0,0,0,.49-1.74c.14-.74.27-1.71.39-2.92l.36-3.23h7.24v11h-2.28V170.2h-2.9l-.28,2a31.93,31.93,0,0,1-.63,3.49,7,7,0,0,1-.85,2.17,2.94,2.94,0,0,1-1.26,1.15,5,5,0,0,1-1.81.38Z" transform="translate(-104.56 -86.39)"/><path class="cls-2" d="M291.5,168.31h2.27v3.63h2.12a5.08,5.08,0,0,1,1.52.23,3.73,3.73,0,0,1,1.28.71,3.43,3.43,0,0,1,.89,1.16,4.16,4.16,0,0,1,0,3.2,3.36,3.36,0,0,1-.88,1.15,3.45,3.45,0,0,1-1.27.68,5,5,0,0,1-1.5.22H291.5Zm4.28,9.11a1.89,1.89,0,0,0,1.31-.44,1.67,1.67,0,0,0,.5-1.32,1.77,1.77,0,0,0-.52-1.38,1.84,1.84,0,0,0-1.26-.47h-2v3.61Z" transform="translate(-104.56 -86.39)"/><path class="cls-2" d="M300.74,177.3h.61a1.64,1.64,0,0,0,.84-.39,2.46,2.46,0,0,0,.58-1,9.68,9.68,0,0,0,.42-1.71c.12-.71.23-1.61.34-2.7l.36-3.23h7.25v9h1.38v5.29h-2v-3.3h-7.82v3.3h-1.95Zm8.13,0v-7.1H306l-.27,2a28.07,28.07,0,0,1-.6,3.21,5.8,5.8,0,0,1-.83,1.88Z" transform="translate(-104.56 -86.39)"/><path class="cls-2" d="M317.5,179.5a4.18,4.18,0,0,1-1.48-.26,3.62,3.62,0,0,1-1.18-.73,3.29,3.29,0,0,1-.78-1.09,3.41,3.41,0,0,1-.28-1.36,2.88,2.88,0,0,1,.34-1.41,3.27,3.27,0,0,1,.95-1.09,4.69,4.69,0,0,1,1.47-.72,7,7,0,0,1,1.88-.25,8.62,8.62,0,0,1,1.53.14,7.17,7.17,0,0,1,1.37.37v-.76a2.55,2.55,0,0,0-.69-1.9,2.73,2.73,0,0,0-2-.68,4.73,4.73,0,0,0-1.73.32,8.6,8.6,0,0,0-1.75.94l-.72-1.47a7.76,7.76,0,0,1,4.41-1.43,5,5,0,0,1,3.53,1.15,4.28,4.28,0,0,1,1.26,3.32v4c0,.49.2.74.61.76v2a5.28,5.28,0,0,1-.58.08l-.47,0a1.49,1.49,0,0,1-1-.34,1.37,1.37,0,0,1-.45-.86l-.06-.69a5,5,0,0,1-1.82,1.48,5.39,5.39,0,0,1-2.32.51m.63-1.7a4,4,0,0,0,1.58-.31,2.66,2.66,0,0,0,1.17-.85,1.06,1.06,0,0,0,.44-.79V174.4a6.23,6.23,0,0,0-1.25-.36,7.23,7.23,0,0,0-1.29-.13,3.52,3.52,0,0,0-2,.54,1.65,1.65,0,0,0-.78,1.42,1.8,1.8,0,0,0,.6,1.37,2.24,2.24,0,0,0,1.56.56" transform="translate(-104.56 -86.39)"/><path class="cls-2" d="M202.62,198.31l-.38,0-.43-.07-.44-.13a2.24,2.24,0,0,1-.38-.19l.29-1.83a5.09,5.09,0,0,0,.49.22,1.78,1.78,0,0,0,.65.12,1.23,1.23,0,0,0,.8-.27,2,2,0,0,0,.6-.95l-4.17-8.35H202l2.79,6.13,2.59-6.13h2.32l-4,8.64a12.53,12.53,0,0,1-.69,1.3,4,4,0,0,1-.7.88,2.17,2.17,0,0,1-.77.5,2.79,2.79,0,0,1-.95.15" transform="translate(-104.56 -86.39)"/><polygon class="cls-2" points="111.04 103.42 113.34 103.42 110.08 107.49 113.6 111.81 111.17 111.81 108.58 108.57 108.01 108.57 108.01 111.81 105.9 111.81 105.9 103.42 108.01 103.42 108.01 106.75 108.49 106.75 111.04 103.42"/><path class="cls-2" d="M224.68,198.36a3.32,3.32,0,0,1-1.73-.44,3.06,3.06,0,0,1-1.15-1.19v4.88h-2.15v-11.8h1.87v1.45a3.44,3.44,0,0,1,1.2-1.17,3.37,3.37,0,0,1,1.7-.42A3.72,3.72,0,0,1,226,190a3.93,3.93,0,0,1,1.24.93,4.32,4.32,0,0,1,.82,1.38,4.89,4.89,0,0,1,.29,1.67,5.28,5.28,0,0,1-.27,1.71,4.29,4.29,0,0,1-.76,1.4,3.56,3.56,0,0,1-1.16.92,3.18,3.18,0,0,1-1.47.34m-.72-1.82a1.94,1.94,0,0,0,.89-.21,2.21,2.21,0,0,0,.69-.56,2.85,2.85,0,0,0,.61-1.78,2.63,2.63,0,0,0-.18-1,2.33,2.33,0,0,0-.48-.79,2.15,2.15,0,0,0-.74-.53,2.17,2.17,0,0,0-.92-.2,2.09,2.09,0,0,0-.63.11,2.49,2.49,0,0,0-.59.29,2.56,2.56,0,0,0-.48.45,1.69,1.69,0,0,0-.33.56v2a2.76,2.76,0,0,0,.88,1.19,2,2,0,0,0,1.28.48" transform="translate(-104.56 -86.39)"/><path class="cls-2" d="M232.63,198.36a3.29,3.29,0,0,1-1.14-.2,2.73,2.73,0,0,1-.91-.56,2.8,2.8,0,0,1-.6-.84,2.61,2.61,0,0,1-.21-1.06,2.25,2.25,0,0,1,.26-1.09,2.54,2.54,0,0,1,.74-.86,3.66,3.66,0,0,1,1.12-.55,4.75,4.75,0,0,1,1.45-.2,5.67,5.67,0,0,1,1.09.1,4,4,0,0,1,.95.27v-.48a1.64,1.64,0,0,0-.47-1.28,2,2,0,0,0-1.4-.45,3.7,3.7,0,0,0-1.31.24,5.78,5.78,0,0,0-1.31.7l-.66-1.36a6.23,6.23,0,0,1,3.49-1.07,4.1,4.1,0,0,1,2.81.89,3.28,3.28,0,0,1,1,2.57v2.61a.77.77,0,0,0,.12.48.59.59,0,0,0,.39.16v1.82a5.13,5.13,0,0,1-.94.11,1.44,1.44,0,0,1-.94-.27,1.14,1.14,0,0,1-.41-.72l-.05-.46a3.68,3.68,0,0,1-1.36,1.12,4,4,0,0,1-1.71.38m.61-1.57a2.73,2.73,0,0,0,1-.19,1.88,1.88,0,0,0,.76-.51.76.76,0,0,0,.35-.61v-1a4.77,4.77,0,0,0-.83-.23,4.41,4.41,0,0,0-.86-.09,2.21,2.21,0,0,0-1.36.38,1.1,1.1,0,0,0-.53.95,1.14,1.14,0,0,0,.42.9,1.48,1.48,0,0,0,1,.36" transform="translate(-104.56 -86.39)"/><path class="cls-2" d="M238.79,186.63h1.78v1.9h-1.78Zm1.36,3.18h2.15v8.39h-2.15Zm1.72-3.18h1.77v1.9h-1.77Z" transform="translate(-104.56 -86.39)"/><polygon class="cls-2" points="142.42 106.59 145.75 106.59 145.75 103.42 147.88 103.42 147.88 111.81 145.75 111.81 145.75 108.42 142.42 108.42 142.42 111.81 140.29 111.81 140.29 103.42 142.42 103.42 142.42 106.59"/><path class="cls-2" d="M255,186.52h2.15v2.13H255Zm0,3.29h2.15v8.39H255Z" transform="translate(-104.56 -86.39)"/><path class="cls-2" d="M192,189.82a2.15,2.15,0,0,1,.85.16,2.18,2.18,0,0,1,.66.46,2,2,0,0,1,.43.67,2.26,2.26,0,0,1,.16.82,2.34,2.34,0,0,1-.29,1.09,1.82,1.82,0,0,1-.95.83,2.25,2.25,0,0,1,1.16.71,2,2,0,0,1,.43,1.37,2,2,0,0,1-.8,1.71,3.77,3.77,0,0,1-2.21.56H187v-8.38Zm-1,3.5a1,1,0,0,0,.72-.26,1,1,0,0,0,.27-.73,1.05,1.05,0,0,0-.23-.68.84.84,0,0,0-.7-.28h-1.88v1.95Zm.29,3.33a1,1,0,0,0,.74-.3,1.05,1.05,0,0,0,.28-.74,1,1,0,0,0-.27-.74,1,1,0,0,0-.74-.3h-2.12v2.08Z" transform="translate(-104.56 -86.39)"/><path class="cls-2" d="M325.52,168.19h.21c.24,0,.45-.09.45-.32s-.12-.32-.45-.32l-.21,0Zm0,1h-.29v-1.83a3.39,3.39,0,0,1,.52-.05,1,1,0,0,1,.57.14.45.45,0,0,1,.17.38.46.46,0,0,1-.36.45h0c.16,0,.27.18.3.45a1.71,1.71,0,0,0,.12.45h-.31a1.64,1.64,0,0,1-.12-.47.34.34,0,0,0-.39-.32h-.21Zm.31-2.34a1.39,1.39,0,0,0,0,2.78,1.39,1.39,0,0,0,0-2.78Zm0-.26a1.65,1.65,0,1,1-1.63,1.65,1.63,1.63,0,0,1,1.63-1.65Z" transform="translate(-104.56 -86.39)"/></svg>